<svg width="48" height="48" viewBox="0 0 48 48" fill="none" xmlns="http://www.w3.org/2000/svg">
<mask id="mask0_732_15031" style="mask-type:luminance" maskUnits="userSpaceOnUse" x="0" y="0" width="48" height="48">
<path d="M47.5391 19.5474H24.5112V28.7747H37.7431C37.5304 30.0805 37.0528 31.3652 36.3534 32.5366C35.552 33.8786 34.5613 34.9004 33.5459 35.6785C30.5042 38.0093 26.958 38.4859 24.4952 38.4859C18.2738 38.4859 12.9581 34.4649 10.9002 29.0011C10.8172 28.8029 10.762 28.5981 10.6949 28.3956C10.2401 27.005 9.99169 25.5323 9.99169 24.0015C9.99169 22.4084 10.2607 20.8835 10.7513 19.4432C12.6864 13.7628 18.122 9.52012 24.4997 9.52012C25.7824 9.52012 27.0178 9.67282 28.1892 9.97738C30.8665 10.6734 32.7603 12.0442 33.9207 13.1286L40.9225 6.27151C36.6634 2.36633 31.1111 5.90435e-09 24.488 5.90435e-09C19.1933 -0.000113959 14.305 1.64956 10.2992 4.43757C7.05062 6.69857 4.38633 9.72576 2.58825 13.2415C0.915782 16.5013 0 20.1138 0 23.9979C0 27.8822 0.917181 31.5322 2.58966 34.7619V34.7837C4.3562 38.2124 6.93949 41.1646 10.0792 43.4152C12.8221 45.3814 17.7403 48 24.488 48C28.3684 48 31.8075 47.3004 34.8405 45.9893C37.0285 45.0435 38.9671 43.8098 40.7222 42.2244C43.0413 40.1294 44.8575 37.5382 46.0972 34.557C47.3369 31.5757 48 28.2044 48 24.5493C48 22.8471 47.829 21.1184 47.5391 19.5473V19.5474Z" fill="white"/>
</mask>
<g mask="url(#mask0_732_15031)">
<g filter="url(#filter0_f_732_15031)">
<path d="M-0.277344 24.1025C-0.251891 27.9255 0.837456 31.8699 2.48636 35.0541V35.076C3.67778 37.3884 5.3061 39.215 7.16073 41.0249L18.3622 36.9377C16.243 35.8612 15.9196 35.2015 14.4004 33.9979C12.848 32.4325 11.6909 30.6353 10.9704 28.5281H10.9413L10.9704 28.5062C10.4963 27.1147 10.4496 25.6376 10.4321 24.1025H-0.277344Z" fill="url(#paint0_radial_732_15031)"/>
</g>
<g filter="url(#filter1_f_732_15031)">
<path d="M24.587 -0.233398C23.4798 3.65619 23.9032 7.43699 24.587 9.63683C25.8655 9.63778 27.0971 9.79018 28.2649 10.0938C30.9422 10.7898 32.8358 12.1607 33.9962 13.245L41.1773 6.21279C36.9232 2.31226 31.8036 -0.227253 24.587 -0.233398Z" fill="url(#paint1_radial_732_15031)"/>
</g>
<g filter="url(#filter2_f_732_15031)">
<path d="M24.5635 -0.263672C19.1328 -0.263789 14.1191 1.42824 10.0104 4.28783C8.48491 5.3496 7.08495 6.57611 5.83838 7.94002C5.51181 11.0037 8.28302 14.7694 13.7709 14.7382C16.4335 11.6409 20.3716 9.63697 24.7546 9.63697C24.7586 9.63697 24.7625 9.6373 24.7665 9.63732L24.5875 -0.262971C24.5794 -0.262976 24.5716 -0.263672 24.5635 -0.263672Z" fill="url(#paint2_radial_732_15031)"/>
</g>
<g filter="url(#filter3_f_732_15031)">
<path d="M42.4874 25.2113L37.6402 28.5413C37.4275 29.8472 36.9495 31.1318 36.2501 32.3032C35.4487 33.6452 34.4581 34.667 33.4427 35.4451C30.4073 37.7711 26.8705 38.25 24.4083 38.252C21.8634 42.5864 21.4172 44.7574 24.5873 48.2557C28.5099 48.2528 31.9874 47.5447 35.0549 46.2187C37.2722 45.2602 39.2367 44.01 41.0153 42.4033C43.3655 40.2803 45.2064 37.6542 46.4627 34.6329C47.7191 31.6117 48.3909 28.1953 48.3909 24.4912L42.4874 25.2113Z" fill="url(#paint3_radial_732_15031)"/>
</g>
<g filter="url(#filter4_f_732_15031)">
<path d="M24.2295 19.1387V29.0671H47.5506C47.7557 27.7073 48.434 25.9478 48.434 24.4912C48.434 22.789 48.2632 20.7098 47.9733 19.1387H24.2295Z" fill="#3086FF"/>
</g>
<g filter="url(#filter5_f_732_15031)">
<path d="M5.94942 7.58984C4.51026 9.16447 3.28078 10.9269 2.30596 12.833C0.633514 16.0928 -0.282227 20.0558 -0.282227 23.94C-0.282227 23.9947 -0.277696 24.0482 -0.277331 24.1029C0.463342 25.523 9.95372 25.2511 10.4321 24.1029C10.4315 24.0493 10.4254 23.9971 10.4254 23.9434C10.4254 22.3503 10.6946 21.1761 11.1852 19.7358C11.7903 17.9593 12.7379 16.3233 13.9497 14.9138C14.2243 14.5631 14.957 13.8092 15.1708 13.357C15.2522 13.1848 15.0229 13.0881 15.0101 13.0275C14.9958 12.9597 14.6884 13.0142 14.6195 12.9637C14.4009 12.8033 13.9679 12.7196 13.705 12.6451C13.1431 12.486 12.2118 12.1351 11.6945 11.7714C10.0594 10.6216 7.50769 9.24823 5.94942 7.58984Z" fill="url(#paint4_radial_732_15031)"/>
</g>
<g filter="url(#filter6_f_732_15031)">
<path d="M11.7296 13.0337C15.5212 15.3305 16.6116 11.8744 19.1325 10.7929L14.7473 1.69922C13.1342 2.37721 11.6101 3.21955 10.196 4.20375C8.08417 5.67358 6.21926 7.46719 4.67871 9.50834L11.7296 13.0337Z" fill="url(#paint5_radial_732_15031)"/>
</g>
<g filter="url(#filter7_f_732_15031)">
<path d="M13.2731 36.2353C8.1833 38.0727 7.38648 38.1386 6.91797 41.2929C7.81327 42.1666 8.7752 42.9747 9.79741 43.7075C12.5403 45.6737 17.8164 48.2923 24.5641 48.2923C24.572 48.2923 24.5796 48.2916 24.5875 48.2916V38.0767C24.5824 38.0767 24.5765 38.077 24.5714 38.077C22.0447 38.077 20.0255 37.4133 17.9553 36.2592C17.4448 35.9747 16.5188 36.7388 16.048 36.3972C15.3987 35.9261 13.8362 36.8031 13.2731 36.2353Z" fill="url(#paint6_radial_732_15031)"/>
</g>
<g opacity="0.5" filter="url(#filter8_f_732_15031)">
<path d="M21.6064 37.7549V48.1146C22.5506 48.2251 23.5331 48.2922 24.5638 48.2922C25.5971 48.2922 26.5967 48.2392 27.5681 48.1416V37.8247C26.4795 38.0108 25.4543 38.077 24.5712 38.077C23.554 38.077 22.5649 37.9586 21.6064 37.7549Z" fill="url(#paint7_linear_732_15031)"/>
</g>
</g>
<defs>
<filter id="filter0_f_732_15031" x="-0.747423" y="23.6325" width="19.5798" height="17.862" filterUnits="userSpaceOnUse" color-interpolation-filters="sRGB">
<feFlood flood-opacity="0" result="BackgroundImageFix"/>
<feBlend mode="normal" in="SourceGraphic" in2="BackgroundImageFix" result="shape"/>
<feGaussianBlur stdDeviation="0.23504" result="effect1_foregroundBlur_732_15031"/>
</filter>
<filter id="filter1_f_732_15031" x="23.4362" y="-0.703478" width="18.2116" height="14.4187" filterUnits="userSpaceOnUse" color-interpolation-filters="sRGB">
<feFlood flood-opacity="0" result="BackgroundImageFix"/>
<feBlend mode="normal" in="SourceGraphic" in2="BackgroundImageFix" result="shape"/>
<feGaussianBlur stdDeviation="0.23504" result="effect1_foregroundBlur_732_15031"/>
</filter>
<filter id="filter2_f_732_15031" x="5.34242" y="-0.733751" width="19.8943" height="15.9421" filterUnits="userSpaceOnUse" color-interpolation-filters="sRGB">
<feFlood flood-opacity="0" result="BackgroundImageFix"/>
<feBlend mode="normal" in="SourceGraphic" in2="BackgroundImageFix" result="shape"/>
<feGaussianBlur stdDeviation="0.23504" result="effect1_foregroundBlur_732_15031"/>
</filter>
<filter id="filter3_f_732_15031" x="21.8834" y="24.0211" width="26.9773" height="24.7048" filterUnits="userSpaceOnUse" color-interpolation-filters="sRGB">
<feFlood flood-opacity="0" result="BackgroundImageFix"/>
<feBlend mode="normal" in="SourceGraphic" in2="BackgroundImageFix" result="shape"/>
<feGaussianBlur stdDeviation="0.23504" result="effect1_foregroundBlur_732_15031"/>
</filter>
<filter id="filter4_f_732_15031" x="23.7594" y="18.6686" width="25.1443" height="10.8689" filterUnits="userSpaceOnUse" color-interpolation-filters="sRGB">
<feFlood flood-opacity="0" result="BackgroundImageFix"/>
<feBlend mode="normal" in="SourceGraphic" in2="BackgroundImageFix" result="shape"/>
<feGaussianBlur stdDeviation="0.23504" result="effect1_foregroundBlur_732_15031"/>
</filter>
<filter id="filter5_f_732_15031" x="-0.752306" y="7.11976" width="16.4109" height="18.4187" filterUnits="userSpaceOnUse" color-interpolation-filters="sRGB">
<feFlood flood-opacity="0" result="BackgroundImageFix"/>
<feBlend mode="normal" in="SourceGraphic" in2="BackgroundImageFix" result="shape"/>
<feGaussianBlur stdDeviation="0.23504" result="effect1_foregroundBlur_732_15031"/>
</filter>
<filter id="filter6_f_732_15031" x="1.37386" y="-1.60563" width="21.0638" height="18.7161" filterUnits="userSpaceOnUse" color-interpolation-filters="sRGB">
<feFlood flood-opacity="0" result="BackgroundImageFix"/>
<feBlend mode="normal" in="SourceGraphic" in2="BackgroundImageFix" result="shape"/>
<feGaussianBlur stdDeviation="1.65243" result="effect1_foregroundBlur_732_15031"/>
</filter>
<filter id="filter7_f_732_15031" x="6.44789" y="35.7243" width="18.6101" height="13.0378" filterUnits="userSpaceOnUse" color-interpolation-filters="sRGB">
<feFlood flood-opacity="0" result="BackgroundImageFix"/>
<feBlend mode="normal" in="SourceGraphic" in2="BackgroundImageFix" result="shape"/>
<feGaussianBlur stdDeviation="0.23504" result="effect1_foregroundBlur_732_15031"/>
</filter>
<filter id="filter8_f_732_15031" x="21.1364" y="37.2848" width="6.90207" height="11.4773" filterUnits="userSpaceOnUse" color-interpolation-filters="sRGB">
<feFlood flood-opacity="0" result="BackgroundImageFix"/>
<feBlend mode="normal" in="SourceGraphic" in2="BackgroundImageFix" result="shape"/>
<feGaussianBlur stdDeviation="0.23504" result="effect1_foregroundBlur_732_15031"/>
</filter>
<radialGradient id="paint0_radial_732_15031" cx="0" cy="0" r="1" gradientTransform="matrix(-0.997443 -23.9038 35.8622 -1.43445 18.138 40.6647)" gradientUnits="userSpaceOnUse">
<stop offset="0.141612" stop-color="#1ABD4D"/>
<stop offset="0.247515" stop-color="#6EC30D"/>
<stop offset="0.311547" stop-color="#8AC502"/>
<stop offset="0.366013" stop-color="#A2C600"/>
<stop offset="0.445673" stop-color="#C8C903"/>
<stop offset="0.540305" stop-color="#EBCB03"/>
<stop offset="0.615636" stop-color="#F7CD07"/>
<stop offset="0.699345" stop-color="#FDCD04"/>
<stop offset="0.771242" stop-color="#FDCE05"/>
<stop offset="0.860566" stop-color="#FFCE0A"/>
</radialGradient>
<radialGradient id="paint1_radial_732_15031" cx="0" cy="0" r="1" gradientTransform="matrix(16.9393 -4.07113e-05 -2.38089e-05 21.4185 40.5055 12.7362)" gradientUnits="userSpaceOnUse">
<stop offset="0.408458" stop-color="#FB4E5A"/>
<stop offset="1" stop-color="#FF4540"/>
</radialGradient>
<radialGradient id="paint2_radial_732_15031" cx="0" cy="0" r="1" gradientTransform="matrix(-23.7332 12.8698 17.8375 31.532 31.2553 -3.36408)" gradientUnits="userSpaceOnUse">
<stop offset="0.231273" stop-color="#FF4541"/>
<stop offset="0.311547" stop-color="#FF4540"/>
<stop offset="0.457516" stop-color="#FF4640"/>
<stop offset="0.540305" stop-color="#FF473F"/>
<stop offset="0.699346" stop-color="#FF5138"/>
<stop offset="0.771242" stop-color="#FF5B33"/>
<stop offset="0.860566" stop-color="#FF6C29"/>
<stop offset="1" stop-color="#FF8C18"/>
</radialGradient>
<radialGradient id="paint3_radial_732_15031" cx="0" cy="0" r="1" gradientTransform="matrix(-43.0409 -55.0094 -20.7393 15.555 24.9401 45.1491)" gradientUnits="userSpaceOnUse">
<stop offset="0.131546" stop-color="#0CBA65"/>
<stop offset="0.209784" stop-color="#0BB86D"/>
<stop offset="0.297297" stop-color="#09B479"/>
<stop offset="0.396257" stop-color="#08AD93"/>
<stop offset="0.477124" stop-color="#0AA6A9"/>
<stop offset="0.568425" stop-color="#0D9CC6"/>
<stop offset="0.667385" stop-color="#1893DD"/>
<stop offset="0.768727" stop-color="#258BF1"/>
<stop offset="0.858506" stop-color="#3086FF"/>
</radialGradient>
<radialGradient id="paint4_radial_732_15031" cx="0" cy="0" r="1" gradientTransform="matrix(-3.04591 25.7043 36.3002 4.12336 22.484 4.27011)" gradientUnits="userSpaceOnUse">
<stop offset="0.366013" stop-color="#FF4E3A"/>
<stop offset="0.457516" stop-color="#FF8A1B"/>
<stop offset="0.540305" stop-color="#FFA312"/>
<stop offset="0.615636" stop-color="#FFB60C"/>
<stop offset="0.771242" stop-color="#FFCD0A"/>
<stop offset="0.860566" stop-color="#FECF0A"/>
<stop offset="0.915033" stop-color="#FECF08"/>
<stop offset="1" stop-color="#FDCD01"/>
</radialGradient>
<radialGradient id="paint5_radial_732_15031" cx="0" cy="0" r="1" gradientTransform="matrix(-8.80425 9.53355 -27.4644 -24.3132 18.2006 4.00293)" gradientUnits="userSpaceOnUse">
<stop offset="0.315904" stop-color="#FF4C3C"/>
<stop offset="0.603818" stop-color="#FF692C"/>
<stop offset="0.726837" stop-color="#FF7825"/>
<stop offset="0.884534" stop-color="#FF8D1B"/>
<stop offset="1" stop-color="#FF9F13"/>
</radialGradient>
<radialGradient id="paint6_radial_732_15031" cx="0" cy="0" r="1" gradientTransform="matrix(-23.7332 -12.8698 17.8375 -31.532 31.2553 51.2468)" gradientUnits="userSpaceOnUse">
<stop offset="0.231273" stop-color="#0FBC5F"/>
<stop offset="0.311547" stop-color="#0FBC5F"/>
<stop offset="0.366013" stop-color="#0FBC5E"/>
<stop offset="0.457516" stop-color="#0FBC5D"/>
<stop offset="0.540305" stop-color="#12BC58"/>
<stop offset="0.699346" stop-color="#28BF3C"/>
<stop offset="0.771242" stop-color="#38C02B"/>
<stop offset="0.860566" stop-color="#52C218"/>
<stop offset="0.915033" stop-color="#67C30F"/>
<stop offset="1" stop-color="#86C504"/>
</radialGradient>
<linearGradient id="paint7_linear_732_15031" x1="21.6064" y1="43.0236" x2="27.5681" y2="43.0236" gradientUnits="userSpaceOnUse">
<stop stop-color="#0FBC5C"/>
<stop offset="1" stop-color="#0CBA65"/>
</linearGradient>
</defs>
</svg>
